<?xml version="1.0" standalone="no"?>
<!DOCTYPE svg PUBLIC "-//W3C//DTD SVG 20010904//EN"
 "http://www.w3.org/TR/2001/REC-SVG-20010904/DTD/svg10.dtd">
<svg version="1.0" xmlns="http://www.w3.org/2000/svg"
 width="398.000000pt" height="398.000000pt" viewBox="0 0 398.000000 398.000000"
 preserveAspectRatio="xMidYMid meet">
<metadata>
Created by potrace 1.14, written by Peter Selinger 2001-2017
</metadata>
<g transform="translate(0.000000,398.000000) scale(0.100000,-0.100000)"
fill="#000000" stroke="none">
<path d="M2910 2567 c-64 -18 -115 -60 -145 -120 l-25 -51 0 -410 c0 -458 0
-455 71 -523 67 -63 67 -63 514 -63 318 0 413 3 438 13 52 22 98 68 123 122
24 50 24 52 24 445 0 248 -4 409 -11 433 -13 47 -69 111 -123 140 -40 21 -52
22 -431 24 -287 2 -402 -1 -435 -10z m626 -180 c73 -38 123 -119 124 -199 1
-173 -191 -475 -354 -558 -116 -58 -210 -52 -289 19 -50 45 -77 102 -77 166 0
76 35 139 117 212 79 69 132 143 156 217 23 69 58 110 119 141 45 22 62 26
113 22 34 -2 74 -11 91 -20z"/>
<path d="M3175 2084 c-42 -61 -45 -68 -31 -82 14 -15 18 -14 43 4 41 30 74 84
71 114 -6 46 -33 35 -83 -36z"/>
<path d="M235 2551 c-22 -10 -54 -34 -72 -52 -63 -67 -63 -68 -63 -506 0 -227
4 -413 10 -433 14 -52 67 -109 124 -136 51 -24 52 -24 446 -24 394 0 395 0
445 24 28 13 62 36 77 52 57 62 58 67 58 511 0 450 -1 451 -66 517 -66 65 -67
66 -514 66 -373 0 -408 -2 -445 -19z m540 -85 c34 -23 58 -84 63 -164 3 -40 7
-71 11 -69 70 37 111 48 166 45 139 -9 198 -130 145 -299 -24 -80 -70 -153
-111 -178 -59 -36 -280 -80 -334 -67 -40 10 -49 49 -25 103 11 25 20 52 20 59
0 22 -42 82 -67 95 -29 16 -77 -12 -118 -68 -45 -60 -62 -69 -94 -46 -76 55
-134 332 -88 420 36 69 193 176 281 192 48 8 120 -3 151 -23z m-474 -459 c24
-18 54 -54 67 -80 27 -51 41 -140 24 -151 -16 -10 -109 23 -143 51 -62 53 -88
154 -49 193 28 28 52 25 101 -13z m259 -209 c17 -18 21 -32 17 -65 -10 -90
-69 -122 -124 -67 -32 33 -26 75 19 121 38 39 59 41 88 11z m324 -144 c11 -10
16 -34 16 -68 0 -103 -62 -133 -166 -81 -70 35 -124 87 -124 119 0 37 25 45
152 45 84 1 110 -2 122 -15z"/>
</g>
</svg>
